<mxfile host="app.diagrams.net" agent="Mozilla/5.0 (Windows NT 10.0; Win64; x64) AppleWebKit/537.36 (KHTML, like Gecko) Chrome/130.0.0.0 Safari/537.36" version="24.8.3">
  <diagram id="9IdN3g88DJwHTmWJtfhZ" name="Página-1">
    <mxGraphModel dx="1120" dy="434" grid="1" gridSize="10" guides="1" tooltips="1" connect="1" arrows="1" fold="1" page="1" pageScale="1" pageWidth="827" pageHeight="1169" math="0" shadow="0">
      <root>
        <mxCell id="0" />
        <mxCell id="1" parent="0" />
        <mxCell id="76351wSGOlS6UZor_auK-5" style="edgeStyle=orthogonalEdgeStyle;rounded=0;orthogonalLoop=1;jettySize=auto;html=1;exitX=1;exitY=0.5;exitDx=0;exitDy=0;entryX=0;entryY=0.5;entryDx=0;entryDy=0;" edge="1" parent="1" source="76351wSGOlS6UZor_auK-1" target="76351wSGOlS6UZor_auK-4">
          <mxGeometry relative="1" as="geometry" />
        </mxCell>
        <mxCell id="76351wSGOlS6UZor_auK-1" value="Pessoa" style="rounded=0;whiteSpace=wrap;html=1;" vertex="1" parent="1">
          <mxGeometry x="230" y="220" width="120" height="60" as="geometry" />
        </mxCell>
        <mxCell id="76351wSGOlS6UZor_auK-6" style="edgeStyle=orthogonalEdgeStyle;rounded=0;orthogonalLoop=1;jettySize=auto;html=1;exitX=0.5;exitY=1;exitDx=0;exitDy=0;entryX=0.5;entryY=0;entryDx=0;entryDy=0;" edge="1" parent="1" source="76351wSGOlS6UZor_auK-2" target="76351wSGOlS6UZor_auK-4">
          <mxGeometry relative="1" as="geometry" />
        </mxCell>
        <mxCell id="76351wSGOlS6UZor_auK-2" value="Banco" style="rounded=0;whiteSpace=wrap;html=1;" vertex="1" parent="1">
          <mxGeometry x="400" y="90" width="120" height="60" as="geometry" />
        </mxCell>
        <mxCell id="76351wSGOlS6UZor_auK-7" style="edgeStyle=orthogonalEdgeStyle;rounded=0;orthogonalLoop=1;jettySize=auto;html=1;exitX=0;exitY=0.5;exitDx=0;exitDy=0;entryX=1;entryY=0.5;entryDx=0;entryDy=0;" edge="1" parent="1" source="76351wSGOlS6UZor_auK-3" target="76351wSGOlS6UZor_auK-4">
          <mxGeometry relative="1" as="geometry" />
        </mxCell>
        <mxCell id="76351wSGOlS6UZor_auK-3" value="Company" style="rounded=0;whiteSpace=wrap;html=1;" vertex="1" parent="1">
          <mxGeometry x="574" y="220" width="120" height="60" as="geometry" />
        </mxCell>
        <mxCell id="76351wSGOlS6UZor_auK-9" style="edgeStyle=orthogonalEdgeStyle;rounded=0;orthogonalLoop=1;jettySize=auto;html=1;exitX=0.5;exitY=1;exitDx=0;exitDy=0;entryX=0.5;entryY=0;entryDx=0;entryDy=0;" edge="1" parent="1" source="76351wSGOlS6UZor_auK-32" target="76351wSGOlS6UZor_auK-8">
          <mxGeometry relative="1" as="geometry" />
        </mxCell>
        <mxCell id="76351wSGOlS6UZor_auK-4" value="U" style="ellipse;whiteSpace=wrap;html=1;aspect=fixed;" vertex="1" parent="1">
          <mxGeometry x="420" y="210" width="80" height="80" as="geometry" />
        </mxCell>
        <mxCell id="76351wSGOlS6UZor_auK-8" value="Owner" style="rounded=0;whiteSpace=wrap;html=1;" vertex="1" parent="1">
          <mxGeometry x="400" y="360" width="120" height="60" as="geometry" />
        </mxCell>
        <mxCell id="76351wSGOlS6UZor_auK-16" style="edgeStyle=orthogonalEdgeStyle;rounded=0;orthogonalLoop=1;jettySize=auto;html=1;entryX=0;entryY=1;entryDx=0;entryDy=0;" edge="1" parent="1" source="76351wSGOlS6UZor_auK-10" target="76351wSGOlS6UZor_auK-1">
          <mxGeometry relative="1" as="geometry" />
        </mxCell>
        <mxCell id="76351wSGOlS6UZor_auK-10" value="Licença" style="ellipse;whiteSpace=wrap;html=1;align=center;" vertex="1" parent="1">
          <mxGeometry x="130" y="300" width="100" height="40" as="geometry" />
        </mxCell>
        <mxCell id="76351wSGOlS6UZor_auK-17" style="edgeStyle=orthogonalEdgeStyle;rounded=0;orthogonalLoop=1;jettySize=auto;html=1;entryX=0;entryY=0.5;entryDx=0;entryDy=0;" edge="1" parent="1" source="76351wSGOlS6UZor_auK-11" target="76351wSGOlS6UZor_auK-1">
          <mxGeometry relative="1" as="geometry" />
        </mxCell>
        <mxCell id="76351wSGOlS6UZor_auK-11" value="CPF" style="ellipse;whiteSpace=wrap;html=1;align=center;" vertex="1" parent="1">
          <mxGeometry x="90" y="230" width="100" height="40" as="geometry" />
        </mxCell>
        <mxCell id="76351wSGOlS6UZor_auK-12" value="Nome" style="ellipse;whiteSpace=wrap;html=1;align=center;" vertex="1" parent="1">
          <mxGeometry x="250" y="120" width="100" height="40" as="geometry" />
        </mxCell>
        <mxCell id="76351wSGOlS6UZor_auK-18" style="edgeStyle=orthogonalEdgeStyle;rounded=0;orthogonalLoop=1;jettySize=auto;html=1;entryX=0;entryY=0;entryDx=0;entryDy=0;" edge="1" parent="1" source="76351wSGOlS6UZor_auK-13" target="76351wSGOlS6UZor_auK-1">
          <mxGeometry relative="1" as="geometry" />
        </mxCell>
        <mxCell id="76351wSGOlS6UZor_auK-13" value="Endereço" style="ellipse;whiteSpace=wrap;html=1;align=center;" vertex="1" parent="1">
          <mxGeometry x="110" y="150" width="100" height="40" as="geometry" />
        </mxCell>
        <mxCell id="76351wSGOlS6UZor_auK-19" style="edgeStyle=orthogonalEdgeStyle;rounded=0;orthogonalLoop=1;jettySize=auto;html=1;entryX=0.583;entryY=0;entryDx=0;entryDy=0;entryPerimeter=0;" edge="1" parent="1" source="76351wSGOlS6UZor_auK-12" target="76351wSGOlS6UZor_auK-1">
          <mxGeometry relative="1" as="geometry" />
        </mxCell>
        <mxCell id="76351wSGOlS6UZor_auK-20" value="Bnome" style="ellipse;whiteSpace=wrap;html=1;align=center;" vertex="1" parent="1">
          <mxGeometry x="340" y="20" width="100" height="40" as="geometry" />
        </mxCell>
        <mxCell id="76351wSGOlS6UZor_auK-25" style="edgeStyle=orthogonalEdgeStyle;rounded=0;orthogonalLoop=1;jettySize=auto;html=1;entryX=0.75;entryY=0;entryDx=0;entryDy=0;" edge="1" parent="1" source="76351wSGOlS6UZor_auK-21" target="76351wSGOlS6UZor_auK-2">
          <mxGeometry relative="1" as="geometry" />
        </mxCell>
        <mxCell id="76351wSGOlS6UZor_auK-21" value="Bendereco" style="ellipse;whiteSpace=wrap;html=1;align=center;" vertex="1" parent="1">
          <mxGeometry x="474" y="20" width="100" height="40" as="geometry" />
        </mxCell>
        <mxCell id="76351wSGOlS6UZor_auK-22" style="edgeStyle=orthogonalEdgeStyle;rounded=0;orthogonalLoop=1;jettySize=auto;html=1;entryX=0.308;entryY=0.017;entryDx=0;entryDy=0;entryPerimeter=0;" edge="1" parent="1" source="76351wSGOlS6UZor_auK-20" target="76351wSGOlS6UZor_auK-2">
          <mxGeometry relative="1" as="geometry" />
        </mxCell>
        <mxCell id="76351wSGOlS6UZor_auK-29" style="edgeStyle=orthogonalEdgeStyle;rounded=0;orthogonalLoop=1;jettySize=auto;html=1;entryX=0.75;entryY=0;entryDx=0;entryDy=0;" edge="1" parent="1" source="76351wSGOlS6UZor_auK-26" target="76351wSGOlS6UZor_auK-3">
          <mxGeometry relative="1" as="geometry" />
        </mxCell>
        <mxCell id="76351wSGOlS6UZor_auK-26" value="Cnome" style="ellipse;whiteSpace=wrap;html=1;align=center;fontStyle=4;" vertex="1" parent="1">
          <mxGeometry x="610" y="130" width="100" height="40" as="geometry" />
        </mxCell>
        <mxCell id="76351wSGOlS6UZor_auK-28" style="edgeStyle=orthogonalEdgeStyle;rounded=0;orthogonalLoop=1;jettySize=auto;html=1;entryX=1;entryY=0.5;entryDx=0;entryDy=0;" edge="1" parent="1" source="76351wSGOlS6UZor_auK-27" target="76351wSGOlS6UZor_auK-3">
          <mxGeometry relative="1" as="geometry" />
        </mxCell>
        <mxCell id="76351wSGOlS6UZor_auK-27" value="Cendereco" style="ellipse;whiteSpace=wrap;html=1;align=center;" vertex="1" parent="1">
          <mxGeometry x="727" y="210" width="100" height="40" as="geometry" />
        </mxCell>
        <mxCell id="76351wSGOlS6UZor_auK-31" value="" style="ellipse;whiteSpace=wrap;html=1;align=center;aspect=fixed;fillColor=none;strokeColor=none;resizable=0;perimeter=centerPerimeter;rotatable=0;allowArrows=0;points=[];outlineConnect=1;" vertex="1" parent="1">
          <mxGeometry x="510" y="140" width="10" height="10" as="geometry" />
        </mxCell>
        <mxCell id="76351wSGOlS6UZor_auK-33" value="" style="edgeStyle=orthogonalEdgeStyle;rounded=0;orthogonalLoop=1;jettySize=auto;html=1;exitX=0.5;exitY=1;exitDx=0;exitDy=0;entryX=0.5;entryY=0;entryDx=0;entryDy=0;" edge="1" parent="1" source="76351wSGOlS6UZor_auK-4" target="76351wSGOlS6UZor_auK-32">
          <mxGeometry relative="1" as="geometry">
            <mxPoint x="460" y="290" as="sourcePoint" />
            <mxPoint x="460" y="360" as="targetPoint" />
          </mxGeometry>
        </mxCell>
        <mxCell id="76351wSGOlS6UZor_auK-32" value="" style="shape=requiredInterface;html=1;verticalLabelPosition=bottom;sketch=0;rotation=-90;" vertex="1" parent="1">
          <mxGeometry x="455" y="310" width="10" height="20" as="geometry" />
        </mxCell>
      </root>
    </mxGraphModel>
  </diagram>
</mxfile>
